<svg width="430" height="36" viewBox="0 0 430 36" fill="none" xmlns="http://www.w3.org/2000/svg">
<path d="M3.16406 32.8286C8.99645 32.8286 12.9956 30.7368 18.3574 29.112C26.6709 26.5927 34.8684 23.2977 42.5361 19.2689C47.4689 16.6771 52.0278 15.1847 57.5661 15.1847C63.6326 15.1847 70.5945 14.16 76.4353 16.0832C88.0838 19.9187 99.277 25.138 111.682 26.1305C118.245 26.6555 126.206 27.0349 132.43 24.7418C137.826 22.7538 144.182 19.6901 148.726 16.2058C157.926 9.15296 168.153 16.8014 176.826 22.0054C184.801 26.7906 193.912 33.706 203.7 31.6033C211.273 29.9767 219.207 25.9761 226 22.373C232.824 18.754 239.901 15.6271 246.666 11.9173C254.138 7.81989 263.132 0.553052 271.744 4.32062C280.242 8.03884 289.495 10.9478 298.781 11.8765C308.302 12.8285 315.643 10.4844 324.104 6.36274C331.867 2.58078 341.821 5.65827 348.691 9.54844C356.718 14.094 367.22 21.5337 376.954 20.0041C386.743 18.4658 396.2 15.2601 405.87 13.1426C412.703 11.6462 419.688 12.6492 426.618 12.9792" stroke="white" stroke-width="5" stroke-linecap="round"/>
</svg>
